<?xml version="1.0" encoding="utf-8"?>
<!-- Generator: Adobe Illustrator 25.3.1, SVG Export Plug-In . SVG Version: 6.00 Build 0)  -->
<svg version="1.1" id="Layer_1" xmlns="http://www.w3.org/2000/svg" xmlns:xlink="http://www.w3.org/1999/xlink" x="0px" y="0px"
	 viewBox="0 0 1920 1080" style="enable-background:new 0 0 1920 1080;" xml:space="preserve">
<style type="text/css">
	.st0{fill:#D0D0D0;}
	.st1{fill:#FFFFFF;}
</style>
<g>
	<path class="st0" d="M314.33,555.11c-3.74-2.25-7.76-2.97-11.99-1.85c-2.72,0.72-3.03,1.99-1.57,4.36c1,1.62,2.51,2.67,4.02,3.53
		c7.63,4.4,12.28,11.27,15.47,19.1c4.81,11.81,13.36,18.55,25.84,20.45c6.79,1.03,13.58,0.98,20.33-0.44
		c0.37-0.08,0.76-0.15,1.13-0.12c0.74,0.05,1.47-0.35,2.19-0.06c0.34,0.45,0.25,0.94,0.26,1.4c0.01,8.55,0.05,17.09,0.02,25.64
		c-0.01,3.91-2.43,6.41-6.3,6.6c-1.71,0.09-3.38-0.02-5.04-0.61c-15.34-5.41-29.45-13.1-42.21-23.15
		c-9.11-7.17-17.22-15.38-24.36-24.57c-6.61-8.5-12.31-17.53-16.87-27.26c-5.32-11.36-9.27-23.18-11.36-35.6
		c-1.24-7.38-2-14.77-2.34-22.25c-0.26-5.7,0.24-11.29,0.63-16.93c0.6-8.81,2.24-17.42,4.58-25.91c1.69-6.13,3.85-12.09,6.3-17.95
		c3.75-8.96,8.49-17.37,14.06-25.31c3.26-4.65,6.7-9.17,10.52-13.41c2.29-2.54,4.63-5.01,7.01-7.45c7.53-7.7,16.12-14.1,25.19-19.82
		c9.09-5.74,18.77-10.35,28.95-13.81c8.88-3.02,17.94-5.33,27.29-6.43c4.13-0.48,8.25-0.94,12.42-1.16
		c2.45-0.13,4.89-0.52,7.36-0.42c4.91,0.2,9.81,0.63,14.71,0.97c8.56,0.58,16.82,2.48,25.05,4.69c6.6,1.77,13.02,4.1,19.23,6.96
		c7.15,3.3,14.11,6.94,20.69,11.3c8.9,5.89,16.96,12.73,24.41,20.36c8.8,9.01,16.19,19.01,22.41,29.94
		c4.14,7.28,7.52,14.89,10.31,22.76c2.56,7.23,4.42,14.67,5.78,22.22c0.94,5.21,1.49,10.46,1.85,15.75c0.24,3.5,0.4,6.99,0.42,10.49
		c0.04,6.73-0.67,13.39-1.58,20.06c-1.17,8.56-3.11,16.93-5.85,25.1c-3.79,11.27-8.81,21.97-15.33,31.96
		c-4.77,7.32-10.13,14.13-16.01,20.61c-10.31,11.34-22.36,20.36-35.59,27.96c-7.27,4.17-14.95,7.39-22.81,10.2
		c-1.44,0.52-2.91,0.69-4.45,0.78c-4.36,0.24-7.15-3.14-7.22-7.06c-0.05-2.85-0.01-5.7-0.01-8.55c0-11.68,0.12-23.36-0.04-35.04
		c-0.11-8.22-2.79-15.59-8.3-21.83c-0.18-0.2-0.29-0.46-0.46-0.73c0.64-0.71,1.45-0.8,2.29-0.89c11.76-1.35,23.15-4.02,33.55-9.88
		c5.29-2.98,9.97-6.69,14.07-11.34c7.28-8.26,11.2-17.99,13.43-28.46c1.82-8.53,2.56-17.29,1.78-25.99
		c-1.07-11.84-4.93-22.73-13.01-31.78c-1.27-1.42-1.65-2.65-1.01-4.57c2.62-7.79,2.82-15.76,1.26-23.81
		c-0.65-3.35-1.42-6.66-2.56-9.88c-0.82-2.31-1.02-2.46-3.48-2.48c-6.1-0.04-11.77,1.83-17.28,4.14c-5.96,2.49-11.6,5.61-16.95,9.24
		c-1.9,1.29-3.8,1.67-6.16,1.01c-5.74-1.6-11.63-2.45-17.57-3.09c-6.41-0.69-12.82-1.27-19.27-0.99
		c-5.19,0.22-10.35,0.82-15.51,1.47c-4.99,0.63-9.88,1.65-14.74,2.88c-1.34,0.34-2.51,0.12-3.76-0.67
		c-4.25-2.68-8.49-5.38-13.05-7.53c-4.9-2.3-9.82-4.51-15.17-5.56c-2.31-0.45-4.62-1-7.02-0.9c-2.46,0.1-2.72,0.21-3.51,2.48
		c-1.77,5.11-3,10.29-3.41,15.75c-0.48,6.43,0.18,12.61,2.11,18.7c0.39,1.25,0.19,2.11-0.64,3.1c-3.31,3.92-6.21,8.15-8.36,12.82
		c-2.88,6.24-4.7,12.76-5,19.67c-0.06,1.41-0.51,2.82-0.46,4.22c0.4,10.98,1.22,21.9,5.05,32.36c4.54,12.39,12.35,22.01,23.75,28.78
		c7.95,4.72,16.62,7.28,25.56,9.13c3.59,0.75,7.23,1.24,10.92,1.87c-0.07,0.43-0.02,0.78-0.17,0.94
		c-4.38,4.52-6.71,10.06-7.85,16.12c-0.37,1.96-1.33,2.87-3.18,3.43c-4.72,1.45-9.44,2.74-14.44,2.73c-2.29,0-4.44-0.81-6.66-1.03
		c-0.81,0.83,0.4,1.7-0.18,2.45c-0.75,0.97-1.68,1.52-2.95,1.23c-1.68-0.39-3.11-1.82-3.01-2.99c0.07-0.73,0.38-0.97,2.3-1.73
		c-1.73-1.08-3.43-2.09-5.08-3.18c-3.4-2.24-5.79-5.41-8.03-8.72c-1.38-2.04-2.78-4.06-4.18-6.09c-0.6-0.86-1.26-1.66-2.22-2.15
		l0.02,0.02c-0.2-0.2-0.4-0.4-0.6-0.6c0,0,0.03,0.03,0.03,0.03c-0.2-0.2-0.4-0.4-0.6-0.6c0,0,0.02,0.02,0.02,0.02
		c-1.81-1.78-3.43-3.87-6.28-4c0,0,0.01,0.01,0.01,0.01c-0.2-0.27-0.39-0.54-0.59-0.81C315,555.16,314.68,555.07,314.33,555.11z"/>
	<path class="st0" d="M741.72,529.04c0,15.19-0.07,30.39,0.06,45.58c0.02,2.54-0.85,4.02-2.95,5.25
		c-8.59,5.03-17.84,8.27-27.48,10.55c-6.09,1.44-12.29,2.23-18.49,2.66c-5.55,0.38-11.17,0.55-16.76-0.24
		c-2.8-0.39-5.65-0.3-8.48-0.65c-8.12-1-16.02-2.79-23.67-5.66c-6.08-2.28-11.69-5.46-16.89-9.31c-5.37-3.97-9.87-8.82-13.7-14.3
		c-6.84-9.79-11.11-20.67-13.55-32.28c-1.08-5.16-1.84-10.39-2.48-15.65c-1.07-8.8-1.05-17.59-0.94-26.39
		c0.08-6.23,0.82-12.43,1.5-18.63c0.8-7.26,2.19-14.39,4.17-21.4c3.15-11.13,7.83-21.48,15.26-30.53
		c7.42-9.04,16.63-15.39,27.44-19.59c6.2-2.41,12.67-3.7,19.24-4.71c8.29-1.28,16.64-1.38,24.96-0.98
		c11.9,0.57,23.76,1.73,35.19,5.52c2.63,0.87,5.11,2.04,7.54,3.33c2.24,1.19,2.64,2.12,2.06,4.58c-2.23,9.38-4.47,18.76-6.75,28.13
		c-0.61,2.51-1.48,2.93-4.1,2.31c-3.96-0.93-7.71-2.61-11.77-3.19c-4.11-0.59-8.21-1.21-12.36-1.56c-4.55-0.38-9.09-0.62-13.63-0.42
		c-7.49,0.32-14.85,1.22-21.86,4.29c-5.65,2.48-10.13,6.29-13.87,11.01c-5.62,7.1-8.03,15.55-9.76,24.25
		c-1.9,9.55-1.89,19.21-1.65,28.87c0.24,9.87,1.56,19.62,5.04,28.93c2.83,7.58,6.89,14.34,13.7,19.13c4.76,3.35,10.07,5.13,15.76,6
		c4.34,0.66,8.7,0.71,13.05,0.5c4.24-0.2,8.48-0.69,12.7-1.18c2.21-0.26,2.46-0.67,2.47-2.97c0.01-11.02,0.01-22.03,0-33.05
		c0-2.57-0.04-2.59-2.78-2.6c-6.36-0.01-12.73,0-19.09,0c-0.66,0-1.33,0.03-1.99-0.01c-2.13-0.12-2.89-0.84-2.95-2.96
		c-0.06-1.99-0.02-3.99-0.02-5.98c0-7.79-0.01-15.57,0.01-23.36c0.01-3.04,0.62-3.65,3.7-3.65c20.14-0.01,40.28-0.01,60.42,0
		c3.18,0,3.73,0.59,3.73,3.92C741.72,498.08,741.72,513.56,741.72,529.04z"/>
	<path class="st0" d="M923.01,494.51c0-29.63,0-59.26,0-88.89c0-0.66-0.01-1.33,0-1.99c0.06-2.9,0.66-3.56,3.51-3.57
		c6.18-0.03,12.35-0.01,18.53-0.01c4.85,0,9.69-0.01,14.54,0c3.44,0.01,3.95,0.52,3.95,3.98c0.01,20.7,0,41.41,0,62.11
		c0,0.66-0.02,1.33,0,1.99c0.07,2.32,0.28,2.57,2.69,2.57c16.53,0.02,33.06,0.02,49.59,0c2.39,0,2.41-0.05,2.41-2.96
		c0.01-20.61,0-41.22,0-61.83c0-5.66,0.22-5.88,5.96-5.88c10.17,0,20.33-0.01,30.5,0c3.49,0,4.53,1.03,4.55,4.58
		c0.03,5.41,0.01,10.83,0.01,16.24c0,54.04,0,108.08-0.01,162.11c0,1.13,0.1,2.26-0.22,3.39c-0.68,2.39-1.25,2.9-3.8,2.91
		c-8.27,0.02-16.53,0.01-24.8,0.01c-2.95,0-5.89,0.03-8.84-0.01c-2.39-0.03-3.19-0.83-3.36-3.23c-0.05-0.76-0.02-1.52-0.02-2.28
		c0.01-23.93,0.01-47.86,0.02-71.8c0-0.76-0.04-1.52,0.01-2.28c0.08-1.29-0.39-1.99-1.78-1.9c-0.57,0.04-1.14,0-1.71,0
		c-15.77,0-31.54,0-47.31,0c-0.66,0-1.33,0.01-2,0.01c-1.31-0.01-1.9,0.66-1.9,1.93c0,0.76-0.01,1.52-0.01,2.28
		c0,24.03,0,48.05,0,72.08c0,0.66,0.02,1.33-0.01,1.99c-0.09,2.46-0.78,3.13-3.31,3.19c-1.52,0.04-3.04,0.01-4.56,0.01
		c-9.5,0-19-0.1-28.5,0.05c-3.29,0.05-4.17-1.29-4.17-4.23c0.04-14.44,0.02-28.87,0.02-43.31
		C923.01,526.04,923.01,510.28,923.01,494.51z"/>
	<path class="st0" d="M1244.15,580.09c-0.26,1.82-0.47,3.68-0.79,5.53c-0.5,2.93-1.38,3.66-4.36,3.67
		c-7.03,0.01-14.06-0.08-21.09,0.04c-4.06,0.06-4.77-0.6-4.76-4.66c0.06-30.76,0.03-61.53,0.03-92.29c0-28.77,0-57.54,0-86.31
		c0-0.76-0.01-1.52,0-2.28c0.04-3.13,0.58-3.69,3.61-3.74c1.42-0.02,2.85,0,4.27,0c9.5,0,19-0.01,28.5,0c3.67,0,4.14,0.46,4.15,4.08
		c0.01,18.7,0,37.41,0,56.11c0,0.57-0.01,1.14,0,1.71c0.04,2.82,0.13,2.82,2.57,1.57c6.28-3.23,12.98-5.19,19.91-6.49
		c3.37-0.63,6.82-0.95,10.14-0.92c10.84,0.11,21.42,1.84,30.2,8.91c6.72,5.4,11.44,12.33,14.2,20.54
		c2.49,7.38,3.94,14.93,4.62,22.72c0.62,7.21,0.63,14.42,0.34,21.59c-0.47,11.43-1.69,22.81-5.52,33.72
		c-2.64,7.54-6.47,14.33-12.57,19.66c-4.14,3.62-8.95,6.05-14.19,7.58c-5.85,1.71-11.94,2.29-17.95,2.26
		c-6.1-0.03-12.24-0.75-18.22-2.39c-7.76-2.13-15.07-5.11-21.45-10.1C1245.35,580.25,1244.88,579.89,1244.15,580.09z
		 M1295.35,524.74c0-1.04-0.02-2.09,0-3.13c0.14-6.57-0.44-13.01-2.69-19.27c-3.12-8.71-8.77-12.55-17.76-12.75
		c-6.95-0.15-13.43,1.78-19.64,4.83c-1.56,0.77-2.24,1.66-2.19,3.46c0.13,4.55,0.04,9.11,0.04,13.66c0,13.28,0.04,26.56-0.04,39.84
		c-0.01,1.89,0.6,2.91,2.29,3.73c3.6,1.75,7.34,3.06,11.26,3.79c5.06,0.94,10.16,1.23,15.22,0.1c3.61-0.81,6.67-2.52,8.73-5.81
		c1.9-3.03,2.92-6.36,3.55-9.8C1295.26,537.23,1295.57,531,1295.35,524.74z"/>
	<path class="st0" d="M1165.76,580.59c-2.11,1.23-3.76,2.3-5.51,3.19c-7.72,3.95-15.8,6.83-24.36,8.36
		c-5.34,0.96-10.73,1.41-16.12,1.03c-8.42-0.59-16.81-1.53-24.45-5.57c-7.53-3.98-12.78-9.96-15.69-17.99
		c-2.21-6.12-3.27-12.42-3.27-18.92c0.02-28.68,0-57.36,0-86.04c0-0.57-0.04-1.15,0.03-1.71c0.18-1.58,0.94-2.31,2.57-2.47
		c0.57-0.06,1.14-0.02,1.71-0.02c10.64,0,21.28,0,31.92,0c3.86,0,4.81,0.95,4.81,4.9c0.01,26.12,0.02,52.23-0.01,78.35
		c0,3.17,0.36,6.19,1.63,9.15c1.21,2.83,3.27,4.57,6.03,5.64c4.02,1.56,8.23,1.43,12.37,0.99c5.23-0.56,10.09-2.38,14.76-4.85
		c1.81-0.96,2.35-2.06,2.34-4c-0.06-17.76-0.04-35.52-0.04-53.28c0-10.54,0-21.08,0-31.63c0-0.57-0.01-1.14,0-1.71
		c0.06-2.89,0.67-3.53,3.54-3.55c6.18-0.03,12.35-0.01,18.53-0.01c4.94,0,9.88-0.02,14.82,0.01c2.73,0.02,3.47,0.79,3.59,3.58
		c0.02,0.57,0,1.14,0,1.71c0,39.41,0,78.83,0,118.24c0,4.88-0.43,5.31-5.38,5.31c-6.27,0-12.54,0.02-18.81,0.01
		c-3-0.01-4.09-0.97-4.26-4.03C1166.44,583.83,1165.9,582.52,1165.76,580.59z"/>
	<path class="st0" d="M836.38,524.64c0-8.83,0-17.66,0-26.5c0-0.57,0.01-1.14,0-1.71c-0.06-2.24-0.07-2.24-2.21-2.31
		c-0.76-0.02-1.52,0-2.28,0c-3.99,0-7.98,0-11.97,0c-4.18,0-4.65-0.49-4.65-4.8c-0.01-6.27,0-12.54,0-18.8c0-0.38-0.01-0.76,0-1.14
		c0.08-2.3,0.76-3.2,3.03-3.77c5.23-1.31,10.47-2.57,15.7-3.87c2.34-0.58,2.37-0.61,2.37-3.02c0.01-10.45,0.01-20.89,0.01-31.34
		c0-0.76-0.02-1.52,0.04-2.28c0.07-1,0.65-1.55,1.64-1.64c0.66-0.06,1.33-0.04,1.99-0.04c11.02,0,22.04-0.01,33.06,0
		c3.41,0,3.68,0.27,3.69,3.76c0.02,9.69,0.01,19.37,0.01,29.06c0,0.76,0.02,1.52,0.02,2.28c0,0.94,0.46,1.39,1.4,1.39
		c0.66,0,1.33,0.02,1.99,0.02c6.94,0,13.87,0.1,20.81-0.04c2.95-0.06,4.98,1.05,4.91,4.98c-0.15,8.26-0.04,16.52-0.05,24.79
		c0,3.59-0.91,4.45-4.6,4.46c-7.22,0.01-14.44-0.01-21.66,0.01c-2.79,0-2.81,0.03-2.81,2.85c-0.01,16.24,0.1,32.48-0.05,48.72
		c-0.07,7.9,4.64,12.22,11.83,13.46c4.21,0.73,8.29,0.06,12.43-0.06c4.63-0.14,5.43,0.7,5.43,5.38c0,6.84,0.01,13.68-0.01,20.51
		c-0.01,3.43-0.57,3.97-3.82,4.94c-8.74,2.63-17.7,3.33-26.72,2.66c-8.27-0.61-16.27-2.46-23.37-7.16
		c-6.17-4.08-10.32-9.64-12.82-16.54c-2.28-6.3-3.35-12.79-3.34-19.47C836.39,541.16,836.39,532.9,836.38,524.64z"/>
	<path class="st0" d="M802.19,524.51c0,19.56,0,39.11,0,58.67c0,0.95,0.04,1.9-0.04,2.85c-0.15,1.92-1.34,3.14-3.27,3.22
		c-1.99,0.09-3.99,0.03-5.98,0.03c-8.36,0-16.72,0-25.07,0c-0.76,0-1.53,0.05-2.28-0.05c-2.79-0.35-3.79-1.47-3.89-4.28
		c-0.03-0.76-0.01-1.52-0.01-2.28c0-39.02,0-78.04,0-117.06c0-0.66-0.02-1.33,0.01-1.99c0.08-2.15,1.11-3.34,3.19-3.65
		c0.65-0.1,1.33-0.05,1.99-0.05c10.16,0,20.33,0.11,30.49-0.06c3.65-0.06,4.95,1.5,4.93,4.83
		C802.13,484.64,802.19,504.57,802.19,524.51z"/>
	<path class="st0" d="M782.41,449.67c-12.32,0.62-22.92-9.87-22.84-22.86c0.08-13.11,10.32-22.76,22.78-22.72
		c12.11,0.04,22.44,9.22,22.53,22.94C804.95,440.3,793.74,450.3,782.41,449.67z"/>
	<path class="st0" d="M336.33,580.27c0.05,1.12-0.77,2-1.88,2.05c-1.47,0.06-3.62-1.96-3.68-3.46c-0.04-0.96,0.93-1.99,1.97-2.07
		C334.13,576.68,336.27,578.75,336.33,580.27z"/>
	<path class="st0" d="M355.54,588.64c-1.42,0.07-2.31-0.78-2.94-1.87c-0.55-0.94,0.1-1.62,0.81-2.15c1-0.74,2.18-0.56,3.29-0.38
		c0.95,0.16,1.81,0.58,1.89,1.78c0.07,1.1-0.45,1.77-1.42,2.2C356.64,588.45,356.12,588.66,355.54,588.64z"/>
	<path class="st0" d="M367.57,584.13c1.39,0.01,2.65-0.07,2.92,1.44c0.24,1.35-0.69,2.08-1.77,2.59c-0.5,0.24-1.07,0.43-1.61,0.45
		c-1.34,0.05-2.66-0.93-2.75-1.97c-0.12-1.47,0.98-1.92,2.05-2.32C366.85,584.16,367.35,584.17,367.57,584.13z"/>
	<path class="st0" d="M323.81,569.32c-0.02-1.43,0.57-2.21,1.61-2.15c1.52,0.1,2.97,1.89,2.94,3.62c-0.02,0.94-0.32,1.71-1.37,1.82
		C325.49,572.79,323.83,571.03,323.81,569.32z"/>
	<path class="st0" d="M323.24,561.34c-0.01,0.28-0.03,0.57-0.03,0.85c0.01,1.17,0.09,2.44-1.6,2.42c-1.32-0.02-2.95-1.89-2.81-3.1
		c0.07-0.63,0.46-1.1,1.05-1.19c0.74-0.12,1.51-0.07,2.26-0.1c0,0-0.02-0.02-0.02-0.02c0.09,0.31,0.29,0.51,0.6,0.6
		c0,0-0.03-0.03-0.03-0.03c0.09,0.31,0.28,0.52,0.6,0.6L323.24,561.34z"/>
	<path class="st0" d="M314.33,555.11c0.35-0.03,0.66,0.06,0.92,0.31c0.03,0.39,0.21,0.68,0.59,0.81l-0.01-0.01
		c-0.45,2.11-1.11,2.65-2.61,2.05c-0.71-0.28-1.36-0.65-1.34-1.58c0.02-0.88,0.49-1.38,1.34-1.51
		C313.58,555.11,313.96,555.13,314.33,555.11z"/>
	<path class="st1" d="M315.84,556.23c-0.38-0.13-0.56-0.42-0.59-0.81C315.45,555.69,315.64,555.96,315.84,556.23z"/>
	<path class="st1" d="M322.69,560.8c-0.31-0.09-0.51-0.29-0.6-0.6C322.29,560.4,322.49,560.6,322.69,560.8z"/>
	<path class="st1" d="M323.26,561.36c-0.32-0.08-0.51-0.29-0.6-0.6C322.86,560.96,323.06,561.16,323.26,561.36z"/>
	<path class="st1" d="M1295.35,524.74c0.21,6.26-0.09,12.49-1.22,18.65c-0.63,3.44-1.65,6.77-3.55,9.8
		c-2.06,3.29-5.12,5.01-8.73,5.81c-5.06,1.13-10.16,0.84-15.22-0.1c-3.92-0.73-7.66-2.03-11.26-3.79c-1.69-0.82-2.3-1.84-2.29-3.73
		c0.08-13.28,0.04-26.56,0.04-39.84c0-4.55,0.08-9.11-0.04-13.66c-0.05-1.8,0.63-2.69,2.19-3.46c6.21-3.05,12.69-4.99,19.64-4.83
		c8.99,0.2,14.64,4.04,17.76,12.75c2.24,6.26,2.83,12.7,2.69,19.27C1295.33,522.65,1295.35,523.69,1295.35,524.74z"/>
</g>
</svg>
